<?xml version="1.0" encoding="UTF-8"?>
<svg xmlns="http://www.w3.org/2000/svg" width="2000" height="2000" viewBox="0 0 2000 2000">
  <rect width="100%" height="100%" fill="#002f2f"/>
  <g transform="translate(1000,900)">
    <!-- falcon body stylized -->
    <path d="M-420,40 C-200,-220 200,-220 420,40 C260,-10 0,10 -120,30 C-200,40 -330,60 -420,40 Z" fill="#00E0C6"/>
    <!-- crown -->
    <g transform="translate(-200,-20)">
      <rect x="-80" y="160" width="210" height="120" rx="18" fill="#3a2450"/>
      <circle cx="25" cy="220" r="16" fill="#F7FBFF"/>
      <path d="M-40,165 L-10,140 L20,165 L50,140 L80,165" stroke="#D8F7F0" stroke-width="10" fill="none" stroke-linecap="round"/>
    </g>
    <!-- sparkle where wing meets crown -->
    <g transform="translate(-160,120)">
      <path d="M0,-40 L6,-8 L40,0 L6,8 L0,40 L-6,8 L-40,0 L-6,-8 Z" fill="#FFFFFF"/>
    </g>
  </g>
</svg>